<?xml version="1.0" encoding="UTF-8" ?>
<svg version="1.1" width="144" height="144" xmlns="http://www.w3.org/2000/svg" shape-rendering="crispEdges">
<rect x="18" y="0" width="108" height="9" fill="#090A14" />
<rect x="9" y="9" width="9" height="9" fill="#090A14" />
<rect x="18" y="9" width="27" height="9" fill="#10141F" />
<rect x="45" y="9" width="18" height="9" fill="#402751" />
<rect x="63" y="9" width="45" height="9" fill="#10141F" />
<rect x="108" y="9" width="9" height="9" fill="#402751" />
<rect x="117" y="9" width="9" height="9" fill="#10141F" />
<rect x="126" y="9" width="9" height="9" fill="#090A14" />
<rect x="0" y="18" width="9" height="108" fill="#090A14" />
<rect x="9" y="18" width="9" height="9" fill="#402751" />
<rect x="18" y="18" width="18" height="9" fill="#10141F" />
<rect x="36" y="18" width="9" height="18" fill="#402751" />
<rect x="45" y="18" width="54" height="9" fill="#10141F" />
<rect x="99" y="18" width="9" height="18" fill="#402751" />
<rect x="108" y="18" width="9" height="27" fill="#10141F" />
<rect x="117" y="18" width="9" height="9" fill="#402751" />
<rect x="126" y="18" width="9" height="72" fill="#10141F" />
<rect x="135" y="18" width="9" height="108" fill="#090A14" />
<rect x="9" y="27" width="18" height="27" fill="#10141F" />
<rect x="27" y="27" width="9" height="9" fill="#402751" />
<rect x="45" y="27" width="9" height="9" fill="#402751" />
<rect x="54" y="27" width="45" height="9" fill="#A8B5B2" />
<rect x="117" y="27" width="9" height="54" fill="#10141F" />
<rect x="27" y="36" width="18" height="36" fill="#10141F" />
<rect x="45" y="36" width="18" height="9" fill="#A8B5B2" />
<rect x="63" y="36" width="27" height="18" fill="#436CA5" />
<rect x="90" y="36" width="18" height="9" fill="#A8B5B2" />
<rect x="45" y="45" width="9" height="54" fill="#A8B5B2" />
<rect x="54" y="45" width="9" height="36" fill="#436CA5" />
<rect x="90" y="45" width="9" height="9" fill="#436CA5" />
<rect x="99" y="45" width="18" height="9" fill="#A8B5B2" />
<rect x="9" y="54" width="9" height="9" fill="#402751" />
<rect x="18" y="54" width="9" height="9" fill="#10141F" />
<rect x="63" y="54" width="9" height="9" fill="#436CA5" />
<rect x="72" y="54" width="27" height="9" fill="#F1CEA0" />
<rect x="99" y="54" width="9" height="9" fill="#436CA5" />
<rect x="108" y="54" width="9" height="9" fill="#A8B5B2" />
<rect x="9" y="63" width="9" height="36" fill="#10141F" />
<rect x="18" y="63" width="9" height="9" fill="#402751" />
<rect x="63" y="63" width="9" height="18" fill="#F1CEA0" />
<rect x="72" y="63" width="9" height="9" fill="#2B8D38" />
<rect x="81" y="63" width="9" height="18" fill="#F1CEA0" />
<rect x="90" y="63" width="9" height="9" fill="#2B8D38" />
<rect x="99" y="63" width="9" height="81" fill="#A8B5B2" />
<rect x="108" y="63" width="9" height="9" fill="#10141F" />
<rect x="18" y="72" width="9" height="9" fill="#10141F" />
<rect x="27" y="72" width="9" height="9" fill="#402751" />
<rect x="36" y="72" width="9" height="9" fill="#10141F" />
<rect x="72" y="72" width="9" height="9" fill="#F1CEA0" />
<rect x="90" y="72" width="9" height="9" fill="#F1CEA0" />
<rect x="108" y="72" width="9" height="9" fill="#402751" />
<rect x="18" y="81" width="9" height="9" fill="#402751" />
<rect x="27" y="81" width="9" height="18" fill="#10141F" />
<rect x="36" y="81" width="9" height="9" fill="#090A14" />
<rect x="54" y="81" width="27" height="18" fill="#BCD1D9" />
<rect x="81" y="81" width="9" height="27" fill="#436CA5" />
<rect x="90" y="81" width="9" height="18" fill="#BCD1D9" />
<rect x="108" y="81" width="9" height="18" fill="#10141F" />
<rect x="117" y="81" width="9" height="9" fill="#402751" />
<rect x="18" y="90" width="9" height="9" fill="#10141F" />
<rect x="36" y="90" width="9" height="27" fill="#A8B5B2" />
<rect x="117" y="90" width="9" height="18" fill="#10141F" />
<rect x="126" y="90" width="9" height="18" fill="#402751" />
<rect x="9" y="99" width="27" height="9" fill="#402751" />
<rect x="45" y="99" width="36" height="18" fill="#FCFEFE" />
<rect x="90" y="99" width="9" height="18" fill="#FCFEFE" />
<rect x="108" y="99" width="9" height="18" fill="#402751" />
<rect x="9" y="108" width="18" height="18" fill="#10141F" />
<rect x="27" y="108" width="9" height="36" fill="#A8B5B2" />
<rect x="81" y="108" width="9" height="9" fill="#3C4879" />
<rect x="117" y="108" width="9" height="9" fill="#402751" />
<rect x="126" y="108" width="9" height="18" fill="#10141F" />
<rect x="36" y="117" width="18" height="9" fill="#FCFEFE" />
<rect x="54" y="117" width="9" height="9" fill="#BCD1D9" />
<rect x="63" y="117" width="27" height="9" fill="#394A50" />
<rect x="90" y="117" width="9" height="9" fill="#BCD1D9" />
<rect x="108" y="117" width="18" height="18" fill="#10141F" />
<rect x="9" y="126" width="9" height="9" fill="#090A14" />
<rect x="18" y="126" width="9" height="9" fill="#10141F" />
<rect x="36" y="126" width="9" height="9" fill="#FCFEFE" />
<rect x="45" y="126" width="9" height="9" fill="#BCD1D9" />
<rect x="54" y="126" width="9" height="9" fill="#819796" />
<rect x="63" y="126" width="9" height="9" fill="#394A50" />
<rect x="72" y="126" width="18" height="18" fill="#A8B5B2" />
<rect x="90" y="126" width="9" height="18" fill="#151D28" />
<rect x="126" y="126" width="9" height="9" fill="#090A14" />
<rect x="18" y="135" width="9" height="9" fill="#090A14" />
<rect x="36" y="135" width="18" height="9" fill="#A8B5B2" />
<rect x="54" y="135" width="9" height="9" fill="#394A50" />
<rect x="63" y="135" width="9" height="9" fill="#A8B5B2" />
<rect x="108" y="135" width="18" height="9" fill="#090A14" />
</svg>